<?xml version="1.0" encoding="iso-8859-1"?>
<!-- Generator: Adobe Illustrator 19.0.0, SVG Export Plug-In . SVG Version: 6.00 Build 0)  -->
<svg version="1.1" id="Layer_1" xmlns="http://www.w3.org/2000/svg" xmlns:xlink="http://www.w3.org/1999/xlink" x="0px" y="0px"
	 viewBox="0 0 512.213 512.213" style="enable-background:new 0 0 512.213 512.213;" xml:space="preserve">
<g transform="translate(1 1)">
	<g>
		<polygon style="fill:#FFE100;" points="110.04,502.68 161.24,502.68 161.24,451.48 110.04,451.48 		"/>
		<polygon style="fill:#FFE100;" points="348.973,502.68 400.173,502.68 400.173,451.48 348.973,451.48 		"/>
	</g>
	<polygon style="fill:#FFA800;" points="383.107,502.68 400.173,502.68 400.173,451.48 383.107,451.48 	"/>
	<polygon style="fill:#FFFFFF;" points="110.04,502.68 127.107,502.68 127.107,451.48 110.04,451.48 	"/>
	<path style="fill:#FFE100;" d="M425.773,451.48H84.44c-9.387,0-17.067-7.68-17.067-17.067s7.68-17.067,17.067-17.067h341.333
		c9.387,0,17.067,7.68,17.067,17.067S435.16,451.48,425.773,451.48"/>
	<path style="fill:#FFA800;" d="M425.773,417.347h-25.6c9.387,0,17.067,7.68,17.067,17.067s-7.68,17.067-17.067,17.067h25.6
		c9.387,0,17.067-7.68,17.067-17.067S435.16,417.347,425.773,417.347"/>
	<path style="fill:#FFFFFF;" d="M84.44,417.347h25.6c-9.387,0-17.067,7.68-17.067,17.067s7.68,17.067,17.067,17.067h-25.6
		c-9.387,0-17.067-7.68-17.067-17.067S75.053,417.347,84.44,417.347"/>
	<polygon style="fill:#FFE100;" points="434.307,144.28 75.907,144.28 255.107,7.747 	"/>
	<polygon style="fill:#FFA800;" points="255.107,7.747 238.04,20.547 400.173,144.28 434.307,144.28 	"/>
	<polygon style="fill:#FFE100;" points="92.973,417.347 417.24,417.347 417.24,144.28 92.973,144.28 	"/>
	<polygon style="fill:#FFA800;" points="391.64,417.347 417.24,417.347 417.24,144.28 391.64,144.28 	"/>
	<polygon style="fill:#FFFFFF;" points="92.973,417.347 118.573,417.347 118.573,144.28 92.973,144.28 	"/>
	<g>
		<path style="fill:#63D3FD;" d="M289.24,212.547c0,18.773-15.36,34.133-34.133,34.133s-34.133-15.36-34.133-34.133
			s15.36-34.133,34.133-34.133S289.24,193.773,289.24,212.547"/>
		<path style="fill:#63D3FD;" d="M289.24,349.08c0,18.773-15.36,34.133-34.133,34.133s-34.133-15.36-34.133-34.133
			c0-18.773,15.36-34.133,34.133-34.133S289.24,330.307,289.24,349.08"/>
	</g>
	<g>
		<path style="fill:#3DB9F9;" d="M255.107,314.947c-2.56,0-5.973,0.853-8.533,0.853c14.507,3.413,25.6,17.067,25.6,33.28
			s-11.093,29.013-25.6,33.28c2.56,0.853,5.973,0.853,8.533,0.853c18.773,0,34.133-15.36,34.133-34.133
			C289.24,330.307,273.88,314.947,255.107,314.947"/>
		<path style="fill:#3DB9F9;" d="M255.107,178.413c-2.56,0-5.973,0.853-8.533,0.853c14.507,3.413,25.6,17.067,25.6,33.28
			s-11.093,29.013-25.6,33.28c2.56,0.853,5.973,0.853,8.533,0.853c18.773,0,34.133-15.36,34.133-34.133
			S273.88,178.413,255.107,178.413"/>
	</g>
	<path d="M417.24,425.88H92.973c-5.12,0-8.533-3.413-8.533-8.533V280.813c0-5.12,3.413-8.533,8.533-8.533H417.24
		c5.12,0,8.533,3.413,8.533,8.533v136.533C425.773,422.467,422.36,425.88,417.24,425.88z M101.507,408.813h307.2V289.347h-307.2
		V408.813z"/>
	<path d="M417.24,289.347H92.973c-5.12,0-8.533-3.413-8.533-8.533V144.28c0-5.12,3.413-8.533,8.533-8.533H417.24
		c5.12,0,8.533,3.413,8.533,8.533v136.533C425.773,285.933,422.36,289.347,417.24,289.347z M101.507,272.28h307.2V152.813h-307.2
		V272.28z"/>
	<path d="M434.307,152.813L434.307,152.813h-358.4c-3.413,0-6.827-2.56-7.68-5.973s0-7.68,2.56-9.387L249.987,0.92
		c3.413-2.56,7.68-2.56,10.24,0L438.573,136.6c2.56,1.707,4.267,4.267,4.267,7.68C442.84,149.4,439.427,152.813,434.307,152.813z
		 M101.507,135.747h307.2L255.107,18.84L101.507,135.747z"/>
	<path d="M161.24,511.213h-51.2c-5.12,0-8.533-3.413-8.533-8.533v-51.2c0-5.12,3.413-8.533,8.533-8.533h51.2
		c5.12,0,8.533,3.413,8.533,8.533v51.2C169.773,507.8,166.36,511.213,161.24,511.213z M118.573,494.147h34.133v-34.133h-34.133
		V494.147z"/>
	<path d="M400.173,511.213h-51.2c-5.12,0-8.533-3.413-8.533-8.533v-51.2c0-5.12,3.413-8.533,8.533-8.533h51.2
		c5.12,0,8.533,3.413,8.533,8.533v51.2C408.707,507.8,405.293,511.213,400.173,511.213z M357.507,494.147h34.133v-34.133h-34.133
		V494.147z"/>
	<path d="M425.773,460.013H84.44c-14.507,0-25.6-11.093-25.6-25.6s11.093-25.6,25.6-25.6h341.333c14.507,0,25.6,11.093,25.6,25.6
		S440.28,460.013,425.773,460.013z M84.44,425.88c-5.12,0-8.533,3.413-8.533,8.533s3.413,8.533,8.533,8.533h341.333
		c5.12,0,8.533-3.413,8.533-8.533s-3.413-8.533-8.533-8.533H84.44z"/>
	<path d="M41.773,178.413c-2.56,0-5.12-0.853-6.827-3.413c-2.56-3.413-1.707-9.387,1.707-11.947l34.133-25.6
		c3.413-2.56,9.387-1.707,11.947,1.707c2.56,3.413,1.707,9.387-1.707,11.947l-34.133,25.6
		C45.187,177.56,43.48,178.413,41.773,178.413z"/>
	<path d="M468.44,178.413c-1.707,0-3.413-0.853-5.12-1.707l-34.133-25.6c-3.413-2.56-4.267-8.533-1.707-11.947
		s8.533-4.267,11.947-1.707l34.133,25.6c3.413,2.56,4.267,8.533,1.707,11.947C473.56,177.56,471,178.413,468.44,178.413z"/>
	<path d="M255.107,255.213c-23.893,0-42.667-18.773-42.667-42.667s18.773-42.667,42.667-42.667s42.667,18.773,42.667,42.667
		S279,255.213,255.107,255.213z M255.107,186.947c-14.507,0-25.6,11.093-25.6,25.6c0,14.507,11.093,25.6,25.6,25.6
		s25.6-11.093,25.6-25.6C280.707,198.04,269.613,186.947,255.107,186.947z"/>
	<path d="M255.107,391.747c-23.893,0-42.667-18.773-42.667-42.667c0-23.893,18.773-42.667,42.667-42.667
		s42.667,18.773,42.667,42.667C297.773,372.973,279,391.747,255.107,391.747z M255.107,323.48c-14.507,0-25.6,11.093-25.6,25.6
		c0,14.507,11.093,25.6,25.6,25.6s25.6-11.093,25.6-25.6C280.707,334.573,269.613,323.48,255.107,323.48z"/>
</g>
<g>
</g>
<g>
</g>
<g>
</g>
<g>
</g>
<g>
</g>
<g>
</g>
<g>
</g>
<g>
</g>
<g>
</g>
<g>
</g>
<g>
</g>
<g>
</g>
<g>
</g>
<g>
</g>
<g>
</g>
</svg>
